<?xml version="1.0" encoding="utf-8"?>
<!-- Generator: Adobe Illustrator 17.0.0, SVG Export Plug-In . SVG Version: 6.00 Build 0)  -->
<!DOCTYPE svg PUBLIC "-//W3C//DTD SVG 1.1 Tiny//EN" "http://www.w3.org/Graphics/SVG/1.1/DTD/svg11-tiny.dtd">
<svg version="1.1" baseProfile="tiny" id="Layer_1" xmlns="http://www.w3.org/2000/svg" xmlns:xlink="http://www.w3.org/1999/xlink"
	 x="0px" y="0px" width="975.725px" height="222px" viewBox="0 0 975.725 222" overflow="scroll" xml:space="preserve">
<g>
	<g>
		<g>
			<path fill="#E74430" d="M139.136,180.375c1.734,2.505,2.794,2.313,4.143,1.734s70.724-23.992,72.844-24.763
				s1.445-1.445,0.771-2.506c-0.674-1.06-23.8-32.471-24.956-34.302s-1.734-1.445-3.565-0.867l-73.542,19.136
				C114.83,138.808,137.401,177.87,139.136,180.375z"/>
		</g>
		<g>
			<path fill="#E74430" d="M222,148.389v-36.768c-8.274,2.205-18.739,4.992-22.87,6.091
				C205.362,126.051,215.106,139.101,222,148.389z"/>
		</g>
		<g>
			<path fill="#E74430" d="M199.059,72.429c-1.134,0.257-26.23,4.793-27.776,4.998c-1.546,0.206-1.031,1.082-0.412,1.958
				l22.085,30.302c0,0,27.003-6.699,28.652-7.06c0.134-0.029,0.264-0.061,0.392-0.093v-4.012
				c-4.908-6.224-18.281-23.17-19.437-24.753C201.172,71.862,200.193,72.171,199.059,72.429z"/>
		</g>
		<g>
			<path fill="#E74430" d="M41.153,24.831c5.434-0.247,5.93,0.99,8.318,4.53l59.984,100.283l75.422-18.068
				c-4.179-5.923-23.15-32.82-24.983-35.386c-2.061-2.886,0.051-4.226,3.401-4.793c3.35-0.567,32.207-5.411,34.681-5.771
				c2.474-0.361,4.432-1.237,8.452,3.608c2.056,2.478,9.029,11.161,15.572,19.299V41.625c0-11.466-4.071-21.27-12.213-29.412
				S191.841,0,180.375,0H41.625c-11.466,0-21.27,4.071-29.412,12.213c-4.67,4.67-7.994,9.889-9.985,15.653
				C15.823,26.749,37.35,25.004,41.153,24.831z"/>
		</g>
		<g>
			<path fill="#E74430" d="M145.938,193.872c-6.36,1.927-9.212,2.883-13.355-2.898c-3.103-4.33-19.882-34.552-28.109-49.45
				c-15.57,4.078-44.065,11.515-52.282,13.489c-8.02,1.927-11.445-2.881-12.763-5.845C38.505,147.089,14.993,96.396,0,63.869
				v116.506c0,11.467,4.071,21.27,12.213,29.412C20.355,217.929,30.159,222,41.625,222h138.75c11.466,0,21.27-4.071,29.412-12.213
				c8.142-8.142,12.213-17.946,12.213-29.412V166.69C204.968,172.92,150.223,192.573,145.938,193.872z"/>
		</g>
		<g>
			<path fill="#E74430" d="M52.389,143.336c2.254-0.516,44.498-10.626,45.4-10.819s1.481-0.709,0.515-2.382
				c-0.966-1.674-56.309-97.202-56.309-97.202c-0.511-0.877-0.365-1.169-1.753-1.096c-1.238,0.065-32.552,2.859-39.803,3.465
				c-0.214,1.508-0.343,3.05-0.399,4.623C7.398,54.991,49.64,142.11,49.877,142.82C50.135,143.593,50.134,143.851,52.389,143.336z"
				/>
		</g>
	</g>
	<g>
		<path fill="#E74430" d="M283.676,168.994V52.971h21.509v95.456h35.482v20.567H283.676z"/>
		<path fill="#E74430" d="M438.633,82.016v86.979h-19.154v-11.304c-4.082,4.71-8.375,8.112-12.874,10.205
			c-4.501,2.092-9.839,3.14-16.014,3.14c-12.771,0-23.263-4.264-31.479-12.796c-8.218-8.529-12.325-19.335-12.325-32.42
			c0-13.291,4.161-24.257,12.481-32.892c8.321-8.635,18.865-12.953,31.636-12.953c6.488,0,11.957,1.048,16.406,3.141
			c4.448,2.095,8.502,5.601,12.167,10.52V82.016H438.633z M393.182,99.129c-7.561,0-13.701,2.512-18.425,7.536
			c-4.725,5.024-7.087,11.566-7.087,19.625c0,7.642,2.362,13.816,7.087,18.526c4.725,4.71,10.97,7.064,18.739,7.064
			c7.664,0,13.806-2.406,18.425-7.222c4.619-4.813,6.93-11.093,6.93-18.84c0-7.745-2.417-14.13-7.244-19.154
			C406.777,101.641,400.634,99.129,393.182,99.129z"/>
		<path fill="#E74430" d="M457,168.994V82.016h19.154v8.479c2.721-3.977,5.441-6.725,8.164-8.242
			c2.721-1.516,6.227-2.277,10.52-2.277h1.727v20.097c-12.458,0-18.684,6.856-18.684,20.566v48.356H457z"/>
		<path fill="#E74430" d="M595.315,82.016v86.979h-19.153v-11.304c-4.082,4.71-8.375,8.112-12.874,10.205
			c-4.502,2.092-9.84,3.14-16.015,3.14c-12.771,0-23.263-4.264-31.479-12.796c-8.218-8.529-12.324-19.335-12.324-32.42
			c0-13.291,4.16-24.257,12.481-32.892s18.864-12.953,31.636-12.953c6.488,0,11.956,1.048,16.406,3.141
			c4.447,2.095,8.503,5.601,12.168,10.52V82.016H595.315z M549.864,99.129c-7.561,0-13.701,2.512-18.426,7.536
			s-7.087,11.566-7.087,19.625c0,7.642,2.362,13.816,7.087,18.526s10.971,7.064,18.74,7.064c7.663,0,13.806-2.406,18.425-7.222
			c4.619-4.813,6.931-11.093,6.931-18.84c0-7.745-2.417-14.13-7.244-19.154C563.459,101.641,557.316,99.129,549.864,99.129z"/>
		<path fill="#E74430" d="M638.489,168.994l-35.011-86.979h23.235l20.097,57.619l19.782-57.619h23.55l-35.012,86.979H638.489z"/>
		<path fill="#E74430" d="M782.144,134.769h-67.353c1.256,5.234,4.003,9.396,8.242,12.481c4.239,3.088,9.498,4.631,15.778,4.631
			c4.396,0,8.007-0.628,10.833-1.884s5.599-3.506,8.321-6.751h22.765c-2.617,8.164-7.798,14.837-15.543,20.018
			c-7.747,5.181-16.382,7.771-25.905,7.771c-13.188,0-24.335-4.342-33.44-13.031c-9.106-8.687-13.659-19.414-13.659-32.185
			c0-12.769,4.447-23.602,13.345-32.499c8.896-8.895,19.729-13.346,32.499-13.346c12.978,0,23.707,4.396,32.186,13.188
			c8.478,8.792,12.717,19.993,12.717,33.598C782.929,129.587,782.666,132.256,782.144,134.769z M714.163,116.399h48.198
			c-2.723-11.512-10.676-17.27-23.863-17.27C725.624,99.129,717.511,104.887,714.163,116.399z"/>
		<path fill="#E74430" d="M796.431,168.994V52.971h20.882v116.023H796.431z"/>
	</g>
	<g>
		<path fill="#FFFFFF" d="M833.044,142.604V54.662h24.276c11.819,0,20.427,2.104,25.822,6.308
			c5.395,4.205,8.093,10.947,8.093,20.229c0,8.966-2.579,15.511-7.735,19.635c-5.158,4.126-13.408,6.188-24.752,6.188H841.85v35.581
			H833.044z M841.85,98.931h16.352c8.832,0,15.078-1.359,18.737-4.078s5.49-7.35,5.49-13.892c0-6.936-1.989-11.704-5.969-14.306
			c-3.979-2.6-11.338-3.901-22.078-3.901H841.85V98.931z"/>
		<path fill="#FFFFFF" d="M903.491,142.604V54.662h8.806v38.675h45.577V54.662h8.807v87.941h-8.807V101.43h-45.577v41.174H903.491z"
			/>
	</g>
</g>
</svg>
